<svg width="14" height="14" viewBox="0 0 14 14" fill="none" xmlns="http://www.w3.org/2000/svg">
<path d="M6.36364 0.636364V5.72727C6.36364 5.89605 6.29659 6.05791 6.17725 6.17725C6.05791 6.29659 5.89605 6.36364 5.72727 6.36364H0.636364C0.467589 6.36364 0.305728 6.29659 0.186387 6.17725C0.0670454 6.05791 0 5.89605 0 5.72727V0.636364C0 0.467589 0.0670454 0.305728 0.186387 0.186387C0.305728 0.0670454 0.467589 0 0.636364 0H5.72727C5.89605 0 6.05791 0.0670454 6.17725 0.186387C6.29659 0.305728 6.36364 0.467589 6.36364 0.636364ZM13.3636 0H8.27273C8.10395 0 7.94209 0.0670454 7.82275 0.186387C7.70341 0.305728 7.63636 0.467589 7.63636 0.636364V5.72727C7.63636 5.89605 7.70341 6.05791 7.82275 6.17725C7.94209 6.29659 8.10395 6.36364 8.27273 6.36364H13.3636C13.5324 6.36364 13.6943 6.29659 13.8136 6.17725C13.933 6.05791 14 5.89605 14 5.72727V0.636364C14 0.467589 13.933 0.305728 13.8136 0.186387C13.6943 0.0670454 13.5324 0 13.3636 0ZM5.72727 7.63636H0.636364C0.467589 7.63636 0.305728 7.70341 0.186387 7.82275C0.0670454 7.94209 0 8.10395 0 8.27273V13.3636C0 13.5324 0.0670454 13.6943 0.186387 13.8136C0.305728 13.933 0.467589 14 0.636364 14H5.72727C5.89605 14 6.05791 13.933 6.17725 13.8136C6.29659 13.6943 6.36364 13.5324 6.36364 13.3636V8.27273C6.36364 8.10395 6.29659 7.94209 6.17725 7.82275C6.05791 7.70341 5.89605 7.63636 5.72727 7.63636ZM13.3636 7.63636H8.27273C8.10395 7.63636 7.94209 7.70341 7.82275 7.82275C7.70341 7.94209 7.63636 8.10395 7.63636 8.27273V13.3636C7.63636 13.5324 7.70341 13.6943 7.82275 13.8136C7.94209 13.933 8.10395 14 8.27273 14H13.3636C13.5324 14 13.6943 13.933 13.8136 13.8136C13.933 13.6943 14 13.5324 14 13.3636V8.27273C14 8.10395 13.933 7.94209 13.8136 7.82275C13.6943 7.70341 13.5324 7.63636 13.3636 7.63636Z" fill="white"/>
</svg>
