<svg width="21" height="20" viewBox="0 0 21 20" fill="none" xmlns="http://www.w3.org/2000/svg">
<rect x="0.5" y="0.5" width="20" height="18.5517" rx="3.5" fill="white" stroke="#DE0000"/>
<path d="M8.68954 2.89655V3.62068H5.06885V5.06896H5.79299V14.4828C5.79299 14.8669 5.94557 15.2352 6.21718 15.5068C6.48878 15.7784 6.85715 15.931 7.24126 15.931H14.4826C14.8667 15.931 15.2351 15.7784 15.5067 15.5068C15.7783 15.2352 15.9309 14.8669 15.9309 14.4828V5.06896H16.6551V3.62068H13.0344V2.89655H8.68954ZM7.24126 5.06896H14.4826V14.4828H7.24126V5.06896ZM8.68954 6.51724V13.0345H10.1378V6.51724H8.68954ZM11.5861 6.51724V13.0345H13.0344V6.51724H11.5861Z" fill="#DE0000"/>
</svg>
